<svg width="24" height="24" viewBox="0 0 24 24" fill="#ff9800" xmlns="http://www.w3.org/2000/svg">
  <path d="M12 6c1.11 0 2-.9 2-2 0-.38-.1-.73-.29-1.03L12 1l-1.71 1.97c-.19.3-.29.65-.29 1.03 0 1.1.9 2 2 2zm4.6 9.99l-1.07-1.07-1.08 1.07c-1.3 1.3-3.58 1.31-4.89 0l-1.07-1.07-1.09 1.07C6.75 16.64 5.88 17 4.96 17c-.73 0-1.4-.23-1.96-.61V21c0 .55.45 1 1 1h16c.55 0 1-.45 1-1v-4.61c-.56.38-1.23.61-1.96.61-.92 0-1.79-.36-2.44-1.01zM18 9H6l-1.24 2.48c-.17.33-.25.69-.25 1.06C4.51 14.25 5.76 15.5 7.47 15.5s2.96-1.25 2.96-2.96c0-.65-.26-1.24-.65-1.68L12 9.5l2.22 1.36c-.39.44-.65 1.03-.65 1.68 0 1.71 1.25 2.96 2.96 2.96s2.96-1.25 2.96-2.96c0-.37-.08-.73-.25-1.06L18 9z"/>
</svg>