<svg width="24" height="24" viewBox="0 0 24 24" fill="#e91e63" xmlns="http://www.w3.org/2000/svg">
  <path d="M12 22c4.97 0 9-4.03 9-9-4.97 0-9 4.03-9 9zM5.6 10.25c0-1.38 1.12-2.5 2.5-2.5.53 0 1.01.16 1.42.44l-.02.19c0 1.38-1.12 2.5-2.5 2.5-.53 0-1.01-.16-1.42-.44l.02-.19zM12 5.25c1.38 0 2.5 1.12 2.5 2.5 0 .53-.16 1.01-.44 1.42l-.19-.02c-1.38 0-2.5-1.12-2.5-2.5 0-.53.16-1.01.44-1.42l.19.02zM15.5 12c0 1.38-1.12 2.5-2.5 2.5-.53 0-1.01-.16-1.42-.44l.02-.19c0-1.38 1.12-2.5 2.5-2.5.53 0 1.01.16 1.42.44l-.02.19zM8.5 12c0-1.38 1.12-2.5 2.5-2.5.53 0 1.01.16 1.42.44l-.02.19c0 1.38-1.12 2.5-2.5 2.5-.53 0-1.01-.16-1.42-.44l.02-.19z"/>
</svg>